<svg width="82" height="82" viewBox="0 0 82 82" fill="none" xmlns="http://www.w3.org/2000/svg">
<g opacity="0.5">
<path opacity="0.5" d="M41 79.4375C62.2284 79.4375 79.4375 62.2284 79.4375 41C79.4375 19.7716 62.2284 2.5625 41 2.5625C19.7716 2.5625 2.5625 19.7716 2.5625 41C2.5625 62.2284 19.7716 79.4375 41 79.4375Z" fill="white"/>
</g>
<path d="M41 79.4375C62.2284 79.4375 79.4375 62.2284 79.4375 41C79.4375 19.7716 62.2284 2.5625 41 2.5625C19.7716 2.5625 2.5625 19.7716 2.5625 41C2.5625 62.2284 19.7716 79.4375 41 79.4375Z" fill="#F7F7F7"/>
<g opacity="0.2">
<path opacity="0.2" d="M41 2.5625C39.9109 2.5625 38.8219 2.62656 37.7969 2.69062C57.5281 4.29219 73.0312 20.8203 73.0312 41C73.0312 61.1797 57.5281 77.6438 37.7969 79.3094C38.8859 79.3734 39.9109 79.4375 41 79.4375C62.2047 79.4375 79.4375 62.2047 79.4375 41C79.4375 19.7953 62.2047 2.5625 41 2.5625Z" fill="#62345B"/>
</g>
<path d="M63.7422 33.7609H49.5203C48.8156 33.7609 48.2391 33.1844 48.2391 32.4797V18.2578C48.2391 17.5531 47.6625 16.9766 46.9578 16.9766H35.0422C34.3375 16.9766 33.7609 17.5531 33.7609 18.2578V32.4797C33.7609 33.1844 33.1844 33.7609 32.4797 33.7609H18.2578C17.5531 33.7609 16.9766 34.3375 16.9766 35.0422V46.8937C16.9766 47.5984 17.5531 48.175 18.2578 48.175H32.4797C33.1844 48.175 33.7609 48.7516 33.7609 49.4562V63.6781C33.7609 64.3828 34.3375 64.9594 35.0422 64.9594H46.8938C47.5984 64.9594 48.175 64.3828 48.175 63.6781V49.5203C48.175 48.8156 48.7516 48.2391 49.4563 48.2391H63.6781C64.3828 48.2391 64.9594 47.6625 64.9594 46.9578V35.0422C65.0234 34.3375 64.4469 33.7609 63.7422 33.7609Z" fill="#F1657C"/>
<path d="M46.8937 65.9844H35.1062C33.8891 65.9844 32.8641 64.9594 32.8641 63.7422V49.4562C32.8641 49.2641 32.7359 49.1359 32.5437 49.1359H18.2578C17.0406 49.1359 16.0156 48.1109 16.0156 46.8937V35.1062C16.0156 33.8891 17.0406 32.8641 18.2578 32.8641H32.4797C32.6719 32.8641 32.8 32.7359 32.8 32.5437V18.2578C32.8 17.0406 33.825 16.0156 35.0422 16.0156H46.8937C48.1109 16.0156 49.1359 17.0406 49.1359 18.2578V32.4797C49.1359 32.6719 49.2641 32.8 49.4562 32.8H63.6781C64.8953 32.8 65.9203 33.825 65.9203 35.0422V46.8937C65.9203 48.1109 64.8953 49.1359 63.6781 49.1359H49.4562C49.2641 49.1359 49.1359 49.2641 49.1359 49.4562V63.6781C49.2 64.9594 48.175 65.9844 46.8937 65.9844ZM18.2578 34.7219C18.0656 34.7219 17.9375 34.85 17.9375 35.0422V46.8937C17.9375 47.0859 18.0656 47.2141 18.2578 47.2141H32.4797C33.6969 47.2141 34.7219 48.2391 34.7219 49.4562V63.6781C34.7219 63.8703 34.85 63.9984 35.0422 63.9984H46.8937C47.0859 63.9984 47.2141 63.8703 47.2141 63.6781V49.4562C47.2141 48.2391 48.2391 47.2141 49.4562 47.2141H63.6781C63.8703 47.2141 63.9984 47.0859 63.9984 46.8937V35.1062C63.9984 34.9141 63.8703 34.7859 63.6781 34.7859H49.4562C48.2391 34.7859 47.2141 33.7609 47.2141 32.5437V18.2578C47.2141 18.0656 47.0859 17.9375 46.8937 17.9375H35.1062C34.9141 17.9375 34.7859 18.0656 34.7859 18.2578V32.4797C34.7859 33.6969 33.7609 34.7219 32.5437 34.7219H18.2578Z" fill="#62345B"/>
<path d="M41 80.3984C19.2828 80.3984 1.60156 62.7172 1.60156 41C1.60156 19.2828 19.2828 1.60156 41 1.60156C62.7172 1.60156 80.3984 19.2828 80.3984 41C80.3984 62.7172 62.7172 80.3984 41 80.3984ZM41 3.52344C20.3078 3.52344 3.52344 20.3078 3.52344 41C3.52344 61.6922 20.3078 78.4766 41 78.4766C61.6922 78.4766 78.4766 61.6922 78.4766 41C78.4766 20.3078 61.6922 3.52344 41 3.52344Z" fill="#62345B"/>
</svg>
