<svg width="77" height="77" viewBox="0 0 77 77" fill="none" xmlns="http://www.w3.org/2000/svg">
<path d="M68.299 29.26C67.914 28.644 67.529 28.028 67.067 27.412C65.758 24.948 64.218 22.638 62.447 20.482C58.366 15.4 54.131 10.395 48.741 6.62199C48.202 6.23699 47.586 6.00599 46.97 5.92899C42.581 2.77199 36.575 -0.231006 32.417 3.92699C31.57 4.77399 31.031 5.85199 30.723 7.00699C27.566 10.78 29.183 16.478 30.877 20.79C31.031 21.175 31.185 21.56 31.339 21.945C30.954 22.407 30.646 22.869 30.492 23.485C29.414 26.873 27.72 29.953 25.487 32.648C23.331 35.189 20.713 36.806 19.712 40.04C19.635 40.194 19.635 40.348 19.635 40.502C14.399 43.582 19.173 50.435 21.945 53.746C23.639 55.748 25.949 57.75 28.644 58.135C31.57 58.597 32.725 56.98 34.419 55.055C38.654 50.281 45.507 49.434 51.436 48.587C51.821 48.51 52.206 48.433 52.514 48.279C53.669 48.587 54.824 48.664 55.979 48.433C59.059 49.357 62.216 49.896 64.988 49.28C66.22 49.049 67.375 48.433 68.222 47.586C69.916 47.509 71.302 46.354 71.687 44.737C73.458 39.039 71.302 33.88 68.299 29.26Z" fill="#EFE7D2"/>
<path d="M32.494 58.212C32.34 58.212 32.186 58.289 32.032 58.289C31.416 58.289 30.954 58.289 30.492 58.289C29.722 58.289 28.952 58.597 28.336 58.982C28.182 58.982 28.028 58.905 27.874 58.905C27.258 57.442 26.18 56.21 24.794 55.44C23.177 54.516 20.559 54.054 19.481 52.437C19.327 51.975 19.096 51.436 18.865 51.051C18.788 50.897 18.711 50.743 18.634 50.512C18.403 50.05 18.172 49.588 17.787 49.203C17.941 46.431 14.938 43.505 11.704 45.199C7.31499 47.509 5.00499 53.438 5.31299 58.212C5.62099 63.525 10.395 67.76 15.246 68.53C17.864 68.992 21.868 67.991 24.794 66.066C25.333 66.528 25.872 66.759 26.565 66.913C28.875 67.375 31.185 68.222 33.187 69.377C35.035 70.455 36.498 72.226 38.577 73.073C41.272 74.151 44.968 72.688 47.201 70.532C48.125 70.378 48.818 69.685 49.126 68.838C52.745 59.444 38.808 57.288 32.494 58.212Z" fill="#F15A22"/>
<path d="M55.825 23.947C54.054 21.483 50.512 19.558 47.663 21.021C47.355 20.944 46.97 20.944 46.662 20.944C45.738 20.944 44.891 21.406 44.429 22.253C43.197 24.794 45.353 27.566 46.893 29.491C47.894 30.8 49.511 33.033 51.359 33.88C51.436 33.957 51.436 34.034 51.513 34.111C52.437 35.035 54.285 35.189 55.132 34.111C57.442 31.108 58.058 27.104 55.825 23.947Z" fill="#F15A22"/>
<path d="M29.414 31.801C28.028 36.575 25.179 40.81 21.329 43.89C19.866 45.045 21.945 47.124 23.408 45.969C27.643 42.504 30.723 37.884 32.263 32.571C32.802 30.8 29.953 29.953 29.414 31.801Z" fill="white"/>
<path d="M38.115 22.561C36.96 20.79 35.959 18.942 34.958 17.094C34.111 15.4 31.57 16.863 32.417 18.557C33.341 20.405 34.419 22.253 35.574 24.024C36.652 25.641 39.193 24.178 38.115 22.561Z" fill="white"/>
<path d="M67.144 37.73C66.297 36.575 65.527 35.266 64.911 33.957C64.526 33.264 63.602 33.033 62.909 33.418C62.216 33.803 61.985 34.727 62.37 35.42C62.986 36.729 63.756 37.961 64.603 39.193C64.988 39.886 65.912 40.117 66.605 39.732C67.375 39.27 67.606 38.423 67.144 37.73Z" fill="white"/>
<path d="M12.089 50.358C9.47101 52.745 7.93101 56.21 9.08601 59.752C9.70201 61.523 12.551 60.753 11.935 58.982C11.088 56.364 12.243 54.131 14.168 52.437C15.554 51.205 13.475 49.126 12.089 50.358Z" fill="white"/>
<path d="M55.902 49.742C56.826 49.742 57.75 49.819 58.597 49.973C60.137 50.281 61.677 50.512 63.217 50.589C64.295 50.589 65.45 50.435 66.528 50.05C67.375 49.742 68.145 49.434 68.915 48.972C70.224 48.202 71.302 47.124 72.072 45.815C72.611 44.737 72.919 43.582 72.919 42.427C72.842 40.81 72.534 39.193 71.841 37.653C71.225 36.036 70.378 34.496 69.531 33.033C65.604 26.334 59.29 18.788 52.899 12.859C49.896 10.01 46.739 7.54602 43.351 5.39002C41.965 4.54302 40.502 3.77302 38.962 3.23402C37.73 2.69502 36.344 2.46402 35.035 2.38702C33.957 2.38702 32.802 2.69502 31.878 3.23402C31.108 3.77302 30.415 4.54302 29.953 5.39002C29.568 6.08302 29.183 6.85302 28.875 7.70002C28.105 9.62502 27.72 11.627 27.72 13.706C27.72 15.015 27.874 16.324 28.105 17.633C28.336 18.711 28.567 19.635 28.644 20.097C28.798 20.713 28.875 21.329 28.875 22.022C28.875 24.101 28.259 26.796 26.18 30.261C24.255 33.572 21.098 37.576 16.247 42.35C16.016 42.35 15.862 42.35 15.708 42.427C13.706 43.351 11.781 44.583 10.164 46.046C8.70101 47.278 7.46901 48.741 6.46801 50.358C5.31301 52.206 4.62001 54.285 4.38901 56.441C4.38901 56.749 4.31201 57.288 4.31201 57.981C4.31201 59.136 4.46601 60.291 4.77401 61.369C5.15901 62.832 5.85201 64.218 6.77601 65.373C7.93101 66.836 9.54801 67.914 11.242 68.53C12.936 69.146 14.707 69.454 16.478 69.454C18.326 69.454 20.174 69.146 21.945 68.607C23.485 68.068 24.871 67.375 26.18 66.374C31.031 67.914 35.497 70.532 39.193 73.997C39.424 74.228 39.732 74.459 40.04 74.69C40.425 74.998 40.887 75.152 41.349 75.152H41.426C41.734 75.152 42.119 75.075 42.427 74.921C42.658 74.844 42.889 74.69 43.12 74.613C44.66 73.766 46.123 72.842 47.586 71.841C48.125 71.456 48.664 71.071 49.126 70.609C49.665 70.07 50.05 69.454 50.281 68.761C50.358 68.453 50.435 68.068 50.435 67.683C50.435 66.605 50.05 65.604 49.357 64.757C48.587 63.833 47.586 63.063 46.508 62.524C42.427 60.291 37.807 59.136 33.11 59.136C32.725 59.136 32.34 59.136 31.955 59.136C38.808 53.053 44.66 51.513 47.355 50.974C51.205 50.204 53.669 49.742 55.902 49.742ZM38.192 5.31302C40.81 6.39102 43.274 7.85402 45.507 9.54802C53.438 15.477 62.601 25.641 67.606 34.111C68.453 35.497 69.146 36.883 69.762 38.423C70.301 39.655 70.609 41.041 70.686 42.35C70.686 43.197 70.532 43.967 70.147 44.737C69.993 44.968 69.916 45.199 69.762 45.353C69.685 45.353 69.531 45.276 69.454 45.276C69.3 45.276 69.223 45.276 69.069 45.353C68.992 45.353 68.915 45.43 68.838 45.507C64.218 42.504 59.829 39.116 55.825 35.42C56.364 34.111 56.98 32.725 57.519 31.416C57.673 31.031 57.827 30.569 57.827 30.184C57.827 30.107 57.827 30.03 57.827 29.953C57.75 29.491 57.596 29.106 57.365 28.721C55.748 25.949 53.592 23.485 51.128 21.483C50.897 21.252 50.589 21.098 50.281 20.867C49.896 20.636 49.511 20.482 49.126 20.405C48.895 20.328 48.664 20.328 48.433 20.328C47.971 20.328 47.432 20.405 46.97 20.559L43.428 21.406C43.351 21.406 43.274 21.483 43.197 21.483C39.347 16.401 36.036 10.934 33.264 5.15902C33.264 5.15902 33.341 5.15902 33.341 5.08202C33.957 4.69702 34.573 4.54302 35.266 4.54302C36.113 4.62002 37.191 4.85102 38.192 5.31302ZM51.898 25.333C52.36 25.795 52.822 26.334 53.207 26.796C53.13 26.796 53.13 26.873 53.053 26.873C52.899 26.95 52.745 26.95 52.591 27.027H52.514C52.36 27.027 52.283 26.873 52.129 26.796C51.975 26.642 51.898 26.411 51.898 26.18C51.898 26.103 51.898 25.949 51.898 25.872C51.821 25.641 51.821 25.487 51.898 25.333ZM50.435 28.105C50.82 28.644 51.436 28.952 52.052 29.106C52.206 29.106 52.437 29.183 52.591 29.183C53.053 29.183 53.515 29.106 53.9 28.875C54.131 28.798 54.285 28.721 54.516 28.567C54.747 28.952 55.055 29.337 55.286 29.799C55.363 29.876 55.363 29.953 55.44 30.03V30.107V30.184C55.44 30.261 55.363 30.415 55.286 30.492L53.9 33.803C50.512 30.569 47.355 27.104 44.429 23.408L47.278 22.792C47.586 22.715 47.894 22.638 48.279 22.638C48.356 22.638 48.433 22.638 48.51 22.638C48.664 22.638 48.818 22.715 48.972 22.792C49.203 22.946 49.357 23.023 49.588 23.177C49.742 23.331 49.973 23.485 50.127 23.639C49.896 24.332 49.742 25.102 49.665 25.872C49.665 26.103 49.665 26.334 49.742 26.565C49.819 27.104 50.05 27.643 50.435 28.105ZM30.877 8.54702C31.108 8.08502 31.262 7.62302 31.493 7.16102C39.655 23.485 52.052 37.345 67.375 47.278C66.836 47.586 66.374 47.817 65.835 47.971C64.988 48.279 64.141 48.433 63.294 48.433C61.908 48.356 60.445 48.125 59.059 47.817C58.52 47.74 58.058 47.663 57.519 47.586C57.442 47.509 57.288 47.432 57.211 47.355C45.892 41.58 36.806 32.263 31.185 20.867C31.108 20.79 31.108 20.713 31.031 20.636C30.954 20.251 30.954 19.943 30.877 19.558C30.723 18.942 30.492 18.172 30.338 17.171C30.107 16.016 30.03 14.861 29.953 13.706C29.876 11.858 30.184 10.164 30.877 8.54702ZM29.414 58.366C28.567 57.904 27.72 57.519 26.95 56.98C26.257 56.518 25.641 56.133 25.102 55.748C24.101 54.978 23.1 54.131 22.253 53.284C19.789 50.743 18.095 47.663 17.325 44.198C22.561 39.116 25.872 34.881 28.028 31.262C29.26 29.26 30.184 27.027 30.723 24.717C36.036 34.188 43.813 42.119 53.284 47.663C51.513 47.894 49.511 48.279 46.893 48.741C43.736 49.357 37.037 51.205 29.414 58.366ZM6.46801 56.595C6.62201 54.747 7.23801 52.976 8.23901 51.436C9.54801 49.434 11.242 47.663 13.244 46.277C13.937 45.815 14.553 45.353 15.323 44.968C16.247 48.664 18.095 52.052 20.713 54.747C23.023 57.057 25.641 58.982 28.567 60.368C28.028 61.215 27.412 61.985 26.796 62.678C25.256 64.372 23.331 65.681 21.175 66.374C19.635 66.913 18.018 67.144 16.401 67.144C14.861 67.144 13.398 66.913 11.935 66.374C10.549 65.835 9.31701 64.988 8.39301 63.833C7.62301 62.909 7.08401 61.831 6.77601 60.676C6.54501 59.752 6.39101 58.751 6.39101 57.827C6.39101 57.288 6.39101 56.826 6.46801 56.595L5.39001 56.441L6.46801 56.595ZM45.276 64.449C46.123 64.834 46.816 65.373 47.432 66.066C47.817 66.528 47.971 67.067 48.048 67.606C48.048 67.76 48.048 67.914 47.971 68.068C47.817 68.453 47.663 68.761 47.355 68.992C46.97 69.377 46.585 69.685 46.2 69.916C44.814 70.84 43.351 71.764 41.888 72.611C41.734 72.688 41.657 72.765 41.503 72.842C41.426 72.842 41.426 72.919 41.349 72.919C41.272 72.919 41.195 72.842 41.118 72.842C40.964 72.688 40.733 72.534 40.579 72.38C36.96 68.992 32.648 66.374 27.951 64.68C28.105 64.526 28.259 64.372 28.336 64.218C29.106 63.371 29.876 62.447 30.492 61.369C31.339 61.292 32.109 61.215 32.956 61.215C37.268 61.292 41.503 62.37 45.276 64.449Z" fill="black"/>
</svg>
