<svg width="86" height="86" viewBox="0 0 86 86" fill="none" xmlns="http://www.w3.org/2000/svg">
<path d="M28.6522 79.7367C27.9751 79.3743 17.4083 70.8769 16.1351 69.6692C15.4493 69.0193 15.5513 68.8245 19.3267 63.562C23.5686 57.6495 26.4561 53.4987 29.8554 48.4278C31.0494 46.647 32.0768 45.1309 32.1389 45.0591C32.2433 44.9362 32.2618 44.9485 32.4584 45.2065C33.1823 46.201 41.728 60.0108 41.6954 60.1342C41.634 60.2755 33.39 73.6762 31.6921 76.3477C29.9365 79.1101 29.3595 79.8651 29.0093 79.8571C28.9355 79.8553 28.7758 79.7957 28.6529 79.7343L28.6522 79.7367ZM56.6484 79.7367C56.3227 79.6077 55.4895 78.3429 51.899 72.5367C49.277 68.2969 44.4317 60.4193 41.4164 55.4927C39.5625 52.4643 37.1359 48.574 34.8641 44.989C29.8806 37.1256 28.1158 33.7869 27.3305 30.7419C26.6693 28.1791 26.5925 26.3215 27.0785 24.6463C27.5578 22.9865 32.3398 12.5713 33.2001 11.3108C34.5391 9.34939 36.9214 7.55937 39.3081 6.72025C40.7202 6.22268 41.2407 6.14282 42.847 6.14282C45.0573 6.14282 46.2039 6.38854 47.8538 7.18834C49.8091 8.13311 51.7257 9.76035 52.7913 11.3802C53.4555 12.3901 55.3727 16.3639 57.4724 21.0798C59.2594 25.0942 59.4794 26.0918 59.1088 28.4967C58.734 30.9096 58.071 32.8778 56.7056 35.6015C55.7175 37.5728 54.0835 40.4237 53.8132 40.6473C53.6841 40.7517 53.3769 40.3094 51.2808 37.0426C49.7053 34.5843 49.1019 33.6942 47.9392 32.1105C45.3012 28.517 44.428 27.2964 44.428 27.1969C44.428 27.1354 44.9135 26.3872 45.5114 25.5334C46.8313 23.6395 47.6646 22.368 48.5273 20.9293C49.3753 19.5171 50.1705 17.9125 50.1379 17.681C50.1379 17.5458 50.015 17.466 49.6647 17.3247C48.1623 16.7288 46.7269 16.6035 42.058 16.6576C38.6248 16.719 37.9679 16.7558 36.8256 17.1367C36.1208 17.3701 35.8461 17.5544 35.8461 17.8014C35.8461 17.9918 36.4686 19.2363 37.1629 20.4409C38.3206 22.4466 39.7014 24.467 43.3392 29.4765C48.0486 35.9615 49.7544 38.4469 52.3052 42.5399C55.5558 47.7558 59.6465 53.7604 66.0913 62.7763C70.354 68.7392 70.4265 68.8626 70.048 69.5076C69.8391 69.8639 65.1136 73.7308 60.5799 77.2562C57.1228 79.9443 57.1425 79.9321 56.6515 79.7343L56.6484 79.7367Z" fill="black"/>
</svg>
