<svg width="101" height="101" viewBox="0 0 101 101" fill="none" xmlns="http://www.w3.org/2000/svg">
<path d="M50.5 78.1172C65.7526 78.1172 78.1172 65.7526 78.1172 50.5C78.1172 35.2474 65.7526 22.8828 50.5 22.8828C35.2474 22.8828 22.8828 35.2474 22.8828 50.5C22.8828 65.7526 35.2474 78.1172 50.5 78.1172Z" fill="white"/>
<path d="M52.8672 25.25C37.6146 25.25 25.25 37.6146 25.25 52.8672C25.25 59.8914 27.8934 66.2812 32.2127 71.1545C37.0859 75.4738 43.4773 78.1172 50.5 78.1172C65.7526 78.1172 78.1172 65.7526 78.1172 50.5C78.1172 43.4758 75.4738 37.0859 71.1545 32.2111C66.2812 27.8934 59.8898 25.25 52.8672 25.25Z" fill="#FF8A80"/>
<path d="M71.1545 32.2111C70.8073 31.9034 70.4333 31.6225 70.0703 31.3321C72.6647 35.5315 74.1719 40.4679 74.1719 45.7656C74.1719 61.0182 61.8072 73.3828 46.5547 73.3828C40.0323 73.3828 34.0717 71.0835 29.3499 67.3007C30.1942 68.6674 31.1506 69.9599 32.2111 71.1561C37.0859 75.4738 43.4773 78.1172 50.5 78.1172C65.7526 78.1172 78.1172 65.7526 78.1172 50.5C78.1172 43.4758 75.4738 37.0859 71.1545 32.2111Z" fill="#FF5252"/>
<path d="M24.2826 44.7809L22.7392 44.4463C23.3042 41.8456 24.2337 39.3363 25.5056 36.9865L26.8928 37.7393C25.6934 39.9565 24.816 42.3253 24.2826 44.7809Z" fill="#37474F"/>
<path d="M22.4678 55.1271C22.22 53.6074 22.0938 52.0497 22.0938 50.5C22.0938 49.3685 22.16 48.2307 22.2926 47.1181L23.8597 47.3043C23.735 48.3554 23.6719 49.4316 23.6719 50.5C23.6719 51.9645 23.7918 53.4369 24.027 54.873L22.4678 55.1271Z" fill="#37474F"/>
<path d="M27.6203 67.337C25.5072 64.4711 23.9701 61.2802 23.0548 57.8525L24.5793 57.4453C25.4441 60.6805 26.8944 63.6931 28.8891 66.3996L27.6203 67.337Z" fill="#37474F"/>
<path d="M36.8161 75.3981C33.9644 73.8278 31.4205 71.7952 29.2537 69.3538L30.4341 68.306C32.481 70.6116 34.8844 72.5322 37.5783 74.0156L36.8161 75.3981Z" fill="#37474F"/>
<path d="M50.5 78.9062C46.7867 78.9062 43.1759 78.2008 39.7687 76.8089L40.3653 75.3476C43.5831 76.6621 46.9918 77.3281 50.5 77.3281C58.3938 77.3281 65.8536 73.872 70.9651 67.8467L72.1692 68.8662C66.7563 75.2481 58.8577 78.9062 50.5 78.9062Z" fill="#37474F"/>
<path d="M74.1261 66.2765L72.8147 65.3991C75.7673 60.985 77.3281 55.8325 77.3281 50.5C77.3281 46.5152 76.4743 42.6788 74.7936 39.1012L76.2218 38.4289C78.0035 42.2196 78.9062 46.2816 78.9062 50.5C78.9062 56.1465 77.2539 61.6021 74.1261 66.2765Z" fill="#37474F"/>
<path d="M73.1114 36.057C71.235 33.1248 68.841 30.614 65.9956 28.5956L66.9078 27.3094C69.9204 29.4447 72.4549 32.1022 74.4417 35.2064L73.1114 36.057Z" fill="#37474F"/>
<path d="M63.5337 27.0459C61.6116 25.9759 59.5632 25.1458 57.4453 24.5793L57.8525 23.0548C60.0966 23.6545 62.2665 24.5335 64.3007 25.665L63.5337 27.0459Z" fill="#37474F"/>
<path d="M44.2191 24.412L43.8513 22.8765C47.4937 22.0038 51.3711 21.8602 55.0655 22.4583L54.8146 24.0159C51.3222 23.4525 47.6562 23.5867 44.2191 24.412Z" fill="#37474F"/>
<path d="M35.1701 28.4804L34.2674 27.1864C36.4168 25.6871 38.7619 24.4925 41.2364 23.6387L41.7509 25.1301C39.4152 25.9365 37.2011 27.0633 35.1701 28.4804Z" fill="#37474F"/>
<path d="M28.4615 35.1969L27.1658 34.2958C28.4993 32.38 30.068 30.6298 31.8276 29.0943L32.8644 30.2826C31.2027 31.7329 29.7208 33.3868 28.4615 35.1969Z" fill="#37474F"/>
<path d="M52.8672 67.0703C54.6103 67.0703 56.0234 65.6572 56.0234 63.9141C56.0234 62.1709 54.6103 60.7578 52.8672 60.7578C51.124 60.7578 49.7109 62.1709 49.7109 63.9141C49.7109 65.6572 51.124 67.0703 52.8672 67.0703Z" fill="#FF5252"/>
<path d="M52.8672 67.8594C50.6925 67.8594 48.9219 66.0887 48.9219 63.9141C48.9219 61.7394 50.6925 59.9688 52.8672 59.9688C55.0418 59.9688 56.8125 61.7394 56.8125 63.9141C56.8125 66.0887 55.0418 67.8594 52.8672 67.8594ZM52.8672 61.5469C51.5621 61.5469 50.5 62.609 50.5 63.9141C50.5 65.2192 51.5621 66.2812 52.8672 66.2812C54.1723 66.2812 55.2344 65.2192 55.2344 63.9141C55.2344 62.609 54.1723 61.5469 52.8672 61.5469Z" fill="#37474F"/>
<path d="M38.6641 39.4531C40.4072 39.4531 41.8203 38.04 41.8203 36.2969C41.8203 34.5537 40.4072 33.1406 38.6641 33.1406C36.9209 33.1406 35.5078 34.5537 35.5078 36.2969C35.5078 38.04 36.9209 39.4531 38.6641 39.4531Z" fill="#FF5252"/>
<path d="M38.6641 40.2422C36.4894 40.2422 34.7188 38.4715 34.7188 36.2969C34.7188 34.1222 36.4894 32.3516 38.6641 32.3516C40.8387 32.3516 42.6094 34.1222 42.6094 36.2969C42.6094 38.4715 40.8387 40.2422 38.6641 40.2422ZM38.6641 33.9297C37.359 33.9297 36.2969 34.9918 36.2969 36.2969C36.2969 37.602 37.359 38.6641 38.6641 38.6641C39.9692 38.6641 41.0312 37.602 41.0312 36.2969C41.0312 34.9918 39.9692 33.9297 38.6641 33.9297Z" fill="#37474F"/>
<path d="M38.6641 57.6016C40.4072 57.6016 41.8203 56.1885 41.8203 54.4453C41.8203 52.7022 40.4072 51.2891 38.6641 51.2891C36.9209 51.2891 35.5078 52.7022 35.5078 54.4453C35.5078 56.1885 36.9209 57.6016 38.6641 57.6016Z" fill="#FF5252"/>
<path d="M38.6641 58.3906C36.4894 58.3906 34.7188 56.62 34.7188 54.4453C34.7188 52.2707 36.4894 50.5 38.6641 50.5C40.8387 50.5 42.6094 52.2707 42.6094 54.4453C42.6094 56.62 40.8387 58.3906 38.6641 58.3906ZM38.6641 52.0781C37.359 52.0781 36.2969 53.1402 36.2969 54.4453C36.2969 55.7504 37.359 56.8125 38.6641 56.8125C39.9692 56.8125 41.0312 55.7504 41.0312 54.4453C41.0312 53.1402 39.9692 52.0781 38.6641 52.0781Z" fill="#37474F"/>
<path d="M60.7578 41.8203C62.501 41.8203 63.9141 40.4072 63.9141 38.6641C63.9141 36.9209 62.501 35.5078 60.7578 35.5078C59.0147 35.5078 57.6016 36.9209 57.6016 38.6641C57.6016 40.4072 59.0147 41.8203 60.7578 41.8203Z" fill="#FF5252"/>
<path d="M60.7578 42.6094C58.5832 42.6094 56.8125 40.8387 56.8125 38.6641C56.8125 36.4894 58.5832 34.7188 60.7578 34.7188C62.9325 34.7188 64.7031 36.4894 64.7031 38.6641C64.7031 40.8387 62.9325 42.6094 60.7578 42.6094ZM60.7578 36.2969C59.4527 36.2969 58.3906 37.359 58.3906 38.6641C58.3906 39.9692 59.4527 41.0312 60.7578 41.0312C62.0629 41.0312 63.125 39.9692 63.125 38.6641C63.125 37.359 62.0629 36.2969 60.7578 36.2969Z" fill="#37474F"/>
<path d="M63.125 57.6016C65.3039 57.6016 67.0703 55.8352 67.0703 53.6562C67.0703 51.4773 65.3039 49.7109 63.125 49.7109C60.9461 49.7109 59.1797 51.4773 59.1797 53.6562C59.1797 55.8352 60.9461 57.6016 63.125 57.6016Z" fill="#FF5252"/>
<path d="M63.125 58.3906C60.5148 58.3906 58.3906 56.2665 58.3906 53.6562C58.3906 51.046 60.5148 48.9219 63.125 48.9219C65.7352 48.9219 67.8594 51.046 67.8594 53.6562C67.8594 56.2665 65.7352 58.3906 63.125 58.3906ZM63.125 50.5C61.3843 50.5 59.9688 51.9156 59.9688 53.6562C59.9688 55.3969 61.3843 56.8125 63.125 56.8125C64.8657 56.8125 66.2812 55.3969 66.2812 53.6562C66.2812 51.9156 64.8657 50.5 63.125 50.5Z" fill="#37474F"/>
<path d="M50.5 49.7109C52.6789 49.7109 54.4453 47.9446 54.4453 45.7656C54.4453 43.5867 52.6789 41.8203 50.5 41.8203C48.3211 41.8203 46.5547 43.5867 46.5547 45.7656C46.5547 47.9446 48.3211 49.7109 50.5 49.7109Z" fill="#FF5252"/>
<path d="M50.5 50.5C47.8898 50.5 45.7656 48.3758 45.7656 45.7656C45.7656 43.1554 47.8898 41.0312 50.5 41.0312C53.1102 41.0312 55.2344 43.1554 55.2344 45.7656C55.2344 48.3758 53.1102 50.5 50.5 50.5ZM50.5 42.6094C48.7593 42.6094 47.3438 44.025 47.3438 45.7656C47.3438 47.5063 48.7593 48.9219 50.5 48.9219C52.2407 48.9219 53.6562 47.5063 53.6562 45.7656C53.6562 44.025 52.2407 42.6094 50.5 42.6094Z" fill="#37474F"/>
<path d="M38.3705 18.4641C40.5486 18.4641 42.3143 16.6984 42.3143 14.5203C42.3143 12.3423 40.5486 10.5766 38.3705 10.5766C36.1925 10.5766 34.4268 12.3423 34.4268 14.5203C34.4268 16.6984 36.1925 18.4641 38.3705 18.4641Z" fill="#FF5252"/>
<path d="M38.3689 19.2547C36.2748 19.2547 34.4568 17.9086 33.8445 15.9059C33.0806 13.4109 34.4883 10.7581 36.9833 9.99426C37.4363 9.85697 37.9018 9.78595 38.3705 9.78595C40.4647 9.78595 42.2827 11.1321 42.895 13.1347C43.2659 14.3436 43.1428 15.625 42.5494 16.7407C41.956 17.8581 40.9634 18.6771 39.7545 19.0464C39.3048 19.1853 38.8376 19.2547 38.3689 19.2547ZM38.3705 11.3641C38.058 11.3641 37.7472 11.4098 37.4457 11.5029C35.7824 12.0127 34.8434 13.7802 35.3531 15.4435C35.8518 17.0769 37.6367 18.0427 39.2937 17.5377C40.1001 17.2915 40.7614 16.7455 41.1575 16.0006C41.5536 15.2557 41.6341 14.402 41.3879 13.5971C40.9792 12.262 39.7672 11.3641 38.3705 11.3641Z" fill="#37474F"/>
<path d="M39.2937 17.5377L43.0812 29.814L39.2937 17.5377Z" fill="#FF5252"/>
<path d="M43.8353 29.5787L40.0478 17.3029L38.5399 17.7681L42.3274 30.0439L43.8353 29.5787Z" fill="#37474F"/>
<path d="M53.9482 92.7101C55.6913 92.7101 57.1044 91.297 57.1044 89.5539C57.1044 87.8107 55.6913 86.3976 53.9482 86.3976C52.205 86.3976 50.7919 87.8107 50.7919 89.5539C50.7919 91.297 52.205 92.7101 53.9482 92.7101Z" fill="#FF5252"/>
<path d="M53.9482 93.5008C52.1665 93.5008 50.5994 92.2982 50.1386 90.5749C49.5768 88.4729 50.8282 86.3061 52.9287 85.7427C54.9961 85.184 57.2102 86.4765 57.7609 88.5328C58.3228 90.6349 57.0713 92.8017 54.9708 93.365C54.6362 93.455 54.2906 93.5008 53.9482 93.5008ZM53.9513 87.1867C53.7462 87.1867 53.5379 87.2151 53.3359 87.2687C52.075 87.6065 51.3253 88.9068 51.6615 90.1678C51.9913 91.4019 53.3154 92.1751 54.5605 91.8422C55.8214 91.5044 56.571 90.2025 56.2349 88.9431C55.9571 87.9079 55.0182 87.1867 53.9513 87.1867Z" fill="#37474F"/>
<path d="M52.0781 73.1855L53.1307 86.5049L52.0781 73.1855Z" fill="#FF5252"/>
<path d="M53.9153 86.4411L52.8624 73.1205L51.2892 73.2448L52.3421 86.5654L53.9153 86.4411Z" fill="#37474F"/>
<path d="M60.7957 15.2321C62.5388 15.2321 63.9519 13.819 63.9519 12.0758C63.9519 10.3327 62.5388 8.91956 60.7957 8.91956C59.0525 8.91956 57.6394 10.3327 57.6394 12.0758C57.6394 13.819 59.0525 15.2321 60.7957 15.2321Z" fill="#FF5252"/>
<path d="M60.7973 16.0211C60.4532 16.0211 60.1092 15.9754 59.7746 15.8854C57.6741 15.3236 56.4227 13.1553 56.9845 11.0532C57.5337 8.99847 59.7478 7.71072 61.8167 8.26306C63.9188 8.82646 65.1702 10.9932 64.6068 13.0953C64.1445 14.8186 62.579 16.0211 60.7973 16.0211ZM60.7941 9.70705C59.7257 9.70705 58.7867 10.4283 58.509 11.4619C58.1713 12.7228 58.9224 14.0232 60.1834 14.3609C61.4285 14.6939 62.751 13.9191 63.0824 12.6865C63.4201 11.4256 62.6689 10.1253 61.408 9.78753C61.2076 9.73388 60.9993 9.70705 60.7941 9.70705Z" fill="#37474F"/>
<path d="M59.9782 15.1232L55.8088 30.6819L59.9782 15.1232Z" fill="#FF5252"/>
<path d="M60.7404 15.3276L59.2161 14.9192L55.0473 30.4778L56.5716 30.8863L60.7404 15.3276Z" fill="#37474F"/>
<path d="M35.9907 89.0016C37.7338 89.0016 39.1469 87.5885 39.1469 85.8453C39.1469 84.1022 37.7338 82.6891 35.9907 82.6891C34.2475 82.6891 32.8344 84.1022 32.8344 85.8453C32.8344 87.5885 34.2475 89.0016 35.9907 89.0016Z" fill="#FF5252"/>
<path d="M35.9891 89.7922C35.4589 89.7922 34.9412 89.6865 34.4489 89.4782C32.4462 88.6275 31.5088 86.3077 32.3579 84.3051C33.1864 82.3561 35.5741 81.384 37.5309 82.214C38.5015 82.6259 39.2527 83.3913 39.6472 84.3682C40.0417 85.345 40.0323 86.4166 39.6204 87.3871C39.0033 88.8485 37.5767 89.7922 35.9891 89.7922ZM35.9923 83.4781C35.0391 83.4781 34.1837 84.0447 33.8129 84.9221C33.3032 86.1231 33.8665 87.5165 35.0675 88.0263C36.2495 88.5265 37.6746 87.9411 38.1701 86.7717C38.4179 86.1893 38.4226 85.547 38.1859 84.96C37.9492 84.3729 37.4978 83.9153 36.9155 83.6691C36.6204 83.5428 36.3095 83.4781 35.9923 83.4781Z" fill="#37474F"/>
<path d="M43.5152 68.1119L37.2248 82.9399L43.5152 68.1119Z" fill="#FF5252"/>
<path d="M44.2397 68.4198L42.7869 67.8035L36.4968 82.6325L37.9496 83.2487L44.2397 68.4198Z" fill="#37474F"/>
<path d="M73.2534 22.7629C74.9965 22.7629 76.4096 21.3498 76.4096 19.6066C76.4096 17.8635 74.9965 16.4504 73.2534 16.4504C71.5102 16.4504 70.0971 17.8635 70.0971 19.6066C70.0971 21.3498 71.5102 22.7629 73.2534 22.7629Z" fill="#FF5252"/>
<path d="M73.2534 23.552C72.1992 23.552 71.2081 23.1417 70.4633 22.3968C69.7184 21.6519 69.3081 20.6608 69.3081 19.6067C69.3081 18.5525 69.7184 17.5614 70.4633 16.8165C71.9514 15.3268 74.5538 15.3268 76.0419 16.8165C76.7868 17.5614 77.1971 18.5525 77.1971 19.6067C77.1971 20.6608 76.7868 21.6519 76.0419 22.3968C75.2986 23.1417 74.3076 23.552 73.2534 23.552ZM73.2534 17.2395C72.6206 17.2395 72.0272 17.4857 71.579 17.9323C71.1308 18.3789 70.8862 18.9738 70.8862 19.6067C70.8862 20.2395 71.1324 20.8329 71.579 21.281C72.4722 22.1743 74.033 22.1743 74.9262 21.281C75.3728 20.8344 75.619 20.2395 75.619 19.6067C75.619 18.9738 75.3728 18.3805 74.9262 17.9323C74.4796 17.4841 73.8862 17.2395 73.2534 17.2395Z" fill="#37474F"/>
<path d="M71.0219 21.8381L65.9593 28.5688L71.0219 21.8381Z" fill="#FF5252"/>
<path d="M71.6518 22.3161L70.3912 21.3667L65.3243 28.0946L66.5849 29.044L71.6518 22.3161Z" fill="#37474F"/>
<path d="M19.5451 81.75C21.724 81.75 23.4904 79.9836 23.4904 77.8047C23.4904 75.6258 21.724 73.8594 19.5451 73.8594C17.3661 73.8594 15.5998 75.6258 15.5998 77.8047C15.5998 79.9836 17.3661 81.75 19.5451 81.75Z" fill="#FF5252"/>
<path d="M19.5451 82.5391C18.2794 82.5391 17.0911 82.0451 16.1979 81.1519C14.353 79.3071 14.353 76.3023 16.1979 74.4559C17.9859 72.6679 21.1043 72.6679 22.8938 74.4559C24.7387 76.3023 24.7387 79.3055 22.8938 81.1519C21.9975 82.0467 20.8091 82.5391 19.5451 82.5391ZM19.5451 74.6485C18.7023 74.6485 17.9085 74.9767 17.3136 75.5717C16.0827 76.8026 16.0827 78.8053 17.3136 80.0362C18.5051 81.2293 20.585 81.2293 21.7781 80.0362C23.009 78.8053 23.009 76.8026 21.7781 75.5717C21.18 74.9767 20.3878 74.6485 19.5451 74.6485Z" fill="#37474F"/>
<path d="M30.6835 68.6484L21.7766 75.5732L30.6835 68.6484Z" fill="#FF5252"/>
<path d="M31.165 69.2704L30.1956 68.0251L21.2929 74.9556L22.2624 76.2009L31.165 69.2704Z" fill="#37474F"/>
<path d="M87.3476 37.8734C89.5257 37.8734 91.2913 36.1078 91.2913 33.9297C91.2913 31.7516 89.5257 29.986 87.3476 29.986C85.1695 29.986 83.4039 31.7516 83.4039 33.9297C83.4039 36.1078 85.1695 37.8734 87.3476 37.8734Z" fill="#FF5252"/>
<path d="M87.3445 38.6641C85.2077 38.6641 83.3281 37.2201 82.7742 35.1543C82.446 33.9328 82.6148 32.6577 83.2461 31.5625C83.8789 30.4673 84.8984 29.6845 86.1198 29.3578C88.6038 28.6919 91.2566 30.24 91.9163 32.7051C92.2445 33.9265 92.0757 35.2016 91.4444 36.2969C90.8132 37.3921 89.7921 38.1748 88.5707 38.5015C88.1714 38.6088 87.7564 38.6641 87.3445 38.6641ZM87.3492 30.7734C87.0746 30.7734 86.7984 30.8097 86.5302 30.8823C85.7158 31.1001 85.0357 31.6225 84.6143 32.3516C84.193 33.0822 84.0809 33.9313 84.2987 34.7471C84.739 36.39 86.5018 37.4221 88.1635 36.9786C88.9778 36.7608 89.658 36.2385 90.0794 35.5094C90.5007 34.7787 90.6128 33.9297 90.395 33.1138C90.0257 31.7361 88.7727 30.7734 87.3492 30.7734Z" fill="#37474F"/>
<path d="M84.2987 34.7471L67.8183 42.0791L84.2987 34.7471Z" fill="#FF5252"/>
<path d="M84.618 35.4675L83.9771 34.0255L67.494 41.3507L68.1349 42.7928L84.618 35.4675Z" fill="#37474F"/>
<path d="M12.0758 63.952C13.819 63.952 15.2321 62.5389 15.2321 60.7957C15.2321 59.0526 13.819 57.6395 12.0758 57.6395C10.3327 57.6395 8.91956 59.0526 8.91956 60.7957C8.91956 62.5389 10.3327 63.952 12.0758 63.952Z" fill="#FF5252"/>
<path d="M12.0742 64.741C10.2925 64.741 8.72544 63.5385 8.26463 61.8152C7.70281 59.7131 8.95427 57.5463 11.0548 56.983C13.1284 56.429 15.3362 57.7184 15.887 59.7731C16.4504 61.8736 15.1989 64.0419 13.0968 64.6053C12.7607 64.6968 12.4183 64.741 12.0742 64.741ZM12.0774 58.4285C11.8722 58.4285 11.6655 58.4553 11.4635 58.509C10.2026 58.8467 9.45138 60.1471 9.7891 61.408C10.1205 62.6405 11.4398 63.417 12.6881 63.0824C13.949 62.7447 14.7002 61.4427 14.3625 60.1834C14.0848 59.1497 13.1458 58.4285 12.0774 58.4285Z" fill="#37474F"/>
<path d="M30.6835 55.8104L15.1247 59.9798L30.6835 55.8104Z" fill="#FF5252"/>
<path d="M30.8883 56.5702L30.4799 55.0459L14.9213 59.2146L15.3297 60.7389L30.8883 56.5702Z" fill="#37474F"/>
<path d="M88.1351 66.3192C89.8783 66.3192 91.2914 64.9061 91.2914 63.1629C91.2914 61.4198 89.8783 60.0067 88.1351 60.0067C86.392 60.0067 84.9789 61.4198 84.9789 63.1629C84.9789 64.9061 86.392 66.3192 88.1351 66.3192Z" fill="#FF5252"/>
<path d="M88.1367 67.1082C87.7927 67.1082 87.4486 67.0625 87.1141 66.9741C85.012 66.4107 83.7606 64.2424 84.324 62.1419C84.8731 60.0872 87.0809 58.7994 89.1562 59.3517C90.1741 59.6248 91.0247 60.2765 91.5518 61.1903C92.0789 62.104 92.2177 63.1661 91.9463 64.184C91.4855 65.9057 89.9184 67.1082 88.1367 67.1082ZM88.1336 60.7957C87.0652 60.7957 86.1262 61.5169 85.8484 62.5506C85.5107 63.8115 86.2619 65.1119 87.5228 65.4496C88.7743 65.7858 90.092 65.0077 90.4218 63.7752C90.586 63.1645 90.5023 62.5269 90.1851 61.9793C89.8695 61.4317 89.3598 61.0403 88.7474 60.8762C88.5454 60.8226 88.3403 60.7957 88.1336 60.7957Z" fill="#37474F"/>
<path d="M85.0878 62.3454L76.4049 59.9688L85.0878 62.3454Z" fill="#FF5252"/>
<path d="M85.2952 61.5858L76.6131 59.2085L76.1963 60.7306L84.8784 63.1079L85.2952 61.5858Z" fill="#37474F"/>
<path d="M15.6171 48.9219C17.3603 48.9219 18.7734 47.5088 18.7734 45.7656C18.7734 44.0225 17.3603 42.6094 15.6171 42.6094C13.874 42.6094 12.4609 44.0225 12.4609 45.7656C12.4609 47.5088 13.874 48.9219 15.6171 48.9219Z" fill="#FF5252"/>
<path d="M15.6187 49.7109C15.2747 49.7109 14.9306 49.6652 14.5961 49.5768C12.494 49.0134 11.2426 46.8451 11.806 44.7446C12.3551 42.6899 14.5692 41.4005 16.6382 41.9545C18.7402 42.5178 19.9917 44.6846 19.4283 46.7867C18.9675 48.5084 17.4004 49.7109 15.6187 49.7109ZM15.6155 43.3984C14.5472 43.3984 13.6082 44.1196 13.3304 45.1533C12.9927 46.4142 13.7439 47.7146 15.0048 48.0523C16.2468 48.3853 17.574 47.6105 17.9038 46.3779C18.2415 45.117 17.4904 43.8166 16.2294 43.4789C16.029 43.4253 15.8207 43.3984 15.6155 43.3984Z" fill="#37474F"/>
<path d="M23.8881 47.3437L18.6661 46.5831L23.8881 47.3437Z" fill="#FF5252"/>
<path d="M24.0011 46.5622L18.7792 45.8007L18.5515 47.3622L23.7734 48.1237L24.0011 46.5622Z" fill="#37474F"/>
<path d="M12.4609 34.7188C14.204 34.7188 15.6171 33.3056 15.6171 31.5625C15.6171 29.8194 14.204 28.4062 12.4609 28.4062C10.7177 28.4062 9.30463 29.8194 9.30463 31.5625C9.30463 33.3056 10.7177 34.7188 12.4609 34.7188Z" fill="#FF5252"/>
<path d="M12.4625 35.5078C12.1184 35.5078 11.7744 35.462 11.4398 35.3737C9.33776 34.8103 8.08631 32.6419 8.6497 30.5414C9.20047 28.4867 11.4114 27.1958 13.4819 27.7513C15.584 28.3147 16.8354 30.4815 16.272 32.5835C15.8112 34.3053 14.2442 35.5078 12.4625 35.5078ZM12.4593 29.1953C11.3909 29.1953 10.4519 29.9165 10.1742 30.9502C9.83645 32.2111 10.5876 33.5115 11.8486 33.8492C13.0937 34.1822 14.4162 33.4073 14.7476 32.1748C15.0853 30.9139 14.3341 29.6135 13.0732 29.2758C12.8728 29.2221 12.6645 29.1953 12.4593 29.1953Z" fill="#37474F"/>
<path d="M30.6835 39.4531L15.5098 32.3799L30.6835 39.4531Z" fill="#FF5252"/>
<path d="M31.0156 38.735L15.8435 31.662L15.1767 33.0923L30.3489 40.1653L31.0156 38.735Z" fill="#37474F"/>
<path d="M81.1046 79.3829C82.8477 79.3829 84.2608 77.9698 84.2608 76.2266C84.2608 74.4835 82.8477 73.0704 81.1046 73.0704C79.3614 73.0704 77.9483 74.4835 77.9483 76.2266C77.9483 77.9698 79.3614 79.3829 81.1046 79.3829Z" fill="#FF5252"/>
<path d="M81.103 80.1719C80.1561 80.1719 79.2408 79.8311 78.5243 79.2124C77.7274 78.5228 77.2461 77.5649 77.1687 76.5139C77.0914 75.4628 77.4291 74.4449 78.1188 73.648C79.4886 72.0667 82.0988 71.871 83.6832 73.2424C85.3292 74.6643 85.5107 77.1609 84.0888 78.8069C83.3392 79.6748 82.2503 80.1719 81.103 80.1719ZM81.1062 73.8594C80.4165 73.8594 79.7632 74.1577 79.3134 74.6801C78.8999 75.1582 78.6979 75.769 78.7437 76.4002C78.7895 77.0299 79.0783 77.6059 79.5564 78.0194C80.508 78.8416 82.0751 78.7264 82.8957 77.7764C83.7495 76.79 83.6406 75.2908 82.6527 74.437C82.2235 74.0646 81.6727 73.8594 81.1062 73.8594Z" fill="#37474F"/>
<path d="M78.7153 74.164L67.0703 64.7031L78.7153 74.164Z" fill="#FF5252"/>
<path d="M79.217 73.5505L67.5714 64.0909L66.5764 65.3159L78.2219 74.7754L79.217 73.5505Z" fill="#37474F"/>
<path d="M23.9528 23.9843C25.6959 23.9843 27.109 22.5712 27.109 20.8281C27.109 19.0849 25.6959 17.6718 23.9528 17.6718C22.2096 17.6718 20.7965 19.0849 20.7965 20.8281C20.7965 22.5712 22.2096 23.9843 23.9528 23.9843Z" fill="#FF5252"/>
<path d="M23.9528 24.7734C22.8986 24.7734 21.9075 24.3631 21.1626 23.6182C20.4178 22.8733 20.0074 21.8823 20.0074 20.8281C20.0074 19.7739 20.4178 18.7828 21.1626 18.038C22.6508 16.5482 25.2531 16.5482 26.7413 18.038C27.4862 18.7828 27.8965 19.7739 27.8965 20.8281C27.8965 21.8807 27.4862 22.8718 26.7413 23.6182C25.998 24.3631 25.0069 24.7734 23.9528 24.7734ZM23.9528 18.4609C23.3199 18.4609 22.7266 18.7071 22.2784 19.1537C21.8302 19.6003 21.5856 20.1953 21.5856 20.8281C21.5856 21.4609 21.8318 22.0543 22.2784 22.5025C23.1716 23.3957 24.7324 23.3957 25.6256 22.5025C26.0722 22.0559 26.3184 21.4609 26.3184 20.8281C26.3184 20.1953 26.0722 19.6019 25.6256 19.1537C25.179 18.7055 24.5856 18.4609 23.9528 18.4609Z" fill="#37474F"/>
<path d="M32.795 30.33L26.1842 23.0596L32.795 30.33Z" fill="#FF5252"/>
<path d="M33.3772 29.7981L26.7666 22.5272L25.5989 23.5888L32.2095 30.8598L33.3772 29.7981Z" fill="#37474F"/>
<path d="M67.8594 33.1406H66.2812V34.7188H67.8594V33.1406Z" fill="#37474F"/>
<path d="M47.3438 55.2344H45.7656V56.8125H47.3438V55.2344Z" fill="#37474F"/>
<path d="M39.4531 67.8594H37.875V69.4375H39.4531V67.8594Z" fill="#37474F"/>
<path d="M34.7188 63.125H33.1406V64.7031H34.7188V63.125Z" fill="#37474F"/>
<path d="M39.4531 61.5469H37.875V63.125H39.4531V61.5469Z" fill="#37474F"/>
<path d="M61.5469 67.8594H59.9688V69.4375H61.5469V67.8594Z" fill="#37474F"/>
<path d="M63.125 63.125H61.5469V64.7031H63.125V63.125Z" fill="#37474F"/>
<path d="M74.1719 53.6562H72.5938V55.2344H74.1719V53.6562Z" fill="#37474F"/>
<path d="M72.5938 47.3438H71.0156V48.9219H72.5938V47.3438Z" fill="#37474F"/>
<path d="M47.3438 36.2969H45.7656V37.875H47.3438V36.2969Z" fill="#37474F"/>
<path d="M52.0781 33.1406H50.5V34.7188H52.0781V33.1406Z" fill="#37474F"/>
<path d="M50.5 29.9844H48.9219V31.5625H50.5V29.9844Z" fill="#37474F"/>
<path d="M53.6562 53.6562H52.0781V55.2344H53.6562V53.6562Z" fill="#37474F"/>
<path d="M29.9844 47.3438H28.4062V48.9219H29.9844V47.3438Z" fill="#37474F"/>
<path d="M34.7188 42.6094H33.1406V44.1875H34.7188V42.6094Z" fill="#37474F"/>
<path d="M67.8594 86.2003C69.6025 86.2003 71.0156 84.7872 71.0156 83.0441C71.0156 81.3009 69.6025 79.8878 67.8594 79.8878C66.1162 79.8878 64.7031 81.3009 64.7031 83.0441C64.7031 84.7872 66.1162 86.2003 67.8594 86.2003Z" fill="#FF5252"/>
<path d="M67.8578 86.991C66.0761 86.991 64.509 85.7884 64.0482 84.0651C63.4864 81.9631 64.7378 79.7963 66.8383 79.2329C68.9057 78.6758 71.1198 79.9667 71.6705 82.023C72.2324 84.1251 70.9809 86.2918 68.8804 86.8552C68.5459 86.9452 68.2018 86.991 67.8578 86.991ZM67.861 80.6769C67.6558 80.6769 67.4475 80.7053 67.2455 80.7589C65.9846 81.0967 65.2334 82.397 65.5711 83.658C65.9025 84.8905 67.2265 85.6669 68.4701 85.3323C69.731 84.9946 70.4822 83.6927 70.1445 82.4333C69.8683 81.3981 68.9293 80.6769 67.861 80.6769Z" fill="#37474F"/>
<path d="M63.125 75.0667L66.2812 80.3265L63.125 75.0667Z" fill="#FF5252"/>
<path d="M66.9578 79.9219L63.8005 74.6625L62.4474 75.4747L65.6047 80.7342L66.9578 79.9219Z" fill="#37474F"/>
<path d="M85.3971 52.3937C87.1402 52.3937 88.5533 50.9806 88.5533 49.2375C88.5533 47.4943 87.1402 46.0812 85.3971 46.0812C83.6539 46.0812 82.2408 47.4943 82.2408 49.2375C82.2408 50.9806 83.6539 52.3937 85.3971 52.3937Z" fill="#FF5252"/>
<path d="M85.3939 53.1828C83.2934 53.1828 81.5638 51.5384 81.4565 49.4379C81.4028 48.3853 81.7626 47.3753 82.4696 46.5925C83.175 45.8098 84.144 45.3506 85.1966 45.2969L85.4002 45.2922C87.5007 45.2922 89.2303 46.9366 89.3376 49.0371C89.3913 50.0897 89.0315 51.0997 88.3261 51.8824C87.6191 52.6652 86.6501 53.1244 85.5975 53.1781L85.3939 53.1828ZM85.4002 46.8703C84.6443 46.905 84.0635 47.1812 83.6406 47.6515C83.2177 48.1218 83.0015 48.7262 83.033 49.359C83.0977 50.6183 84.1346 51.6047 85.3939 51.6047L85.517 51.6015C86.1482 51.57 86.7306 51.2938 87.1535 50.8235C87.5764 50.3532 87.7926 49.7488 87.7595 49.1175C87.6964 47.8566 86.6596 46.8703 85.4002 46.8703Z" fill="#37474F"/>
<path d="M77.9183 49.2501L82.2456 49.3985L77.9183 49.2501Z" fill="#FF5252"/>
<path d="M82.2686 48.611L77.9424 48.463L77.8884 50.0401L82.2146 50.1882L82.2686 48.611Z" fill="#37474F"/>
</svg>
