<svg width="104" height="99" viewBox="0 0 104 99" fill="none" xmlns="http://www.w3.org/2000/svg">
<path d="M8.13112 81.4H12.2891C13.9571 81.4 15.2111 81.91 16.0511 82.93C16.9031 83.938 17.3291 85.444 17.3291 87.448C17.3291 89.008 17.1371 90.268 16.7531 91.228C16.3811 92.176 15.7871 92.878 14.9711 93.334C14.1671 93.778 13.1051 94 11.7851 94H8.13112V81.4ZM12.0731 92.398C13.2251 92.398 14.0591 92.008 14.5751 91.228C15.1031 90.448 15.3671 89.188 15.3671 87.448C15.3671 85.912 15.1151 84.79 14.6111 84.082C14.1071 83.362 13.3091 83.002 12.2171 83.002H10.0931V92.398H12.0731ZM31.2456 90.184H24.8376C24.9336 91 25.1916 91.618 25.6116 92.038C26.0436 92.458 26.6316 92.668 27.3756 92.668C28.4316 92.668 29.2836 92.254 29.9316 91.426L30.9216 92.38C30.5736 92.944 30.0756 93.388 29.4276 93.712C28.7796 94.024 28.0656 94.18 27.2856 94.18C25.9416 94.18 24.8916 93.772 24.1356 92.956C23.3916 92.128 23.0196 90.982 23.0196 89.518C23.0196 88.054 23.3976 86.908 24.1536 86.08C24.9096 85.24 25.9476 84.82 27.2676 84.82C28.5156 84.82 29.4876 85.234 30.1836 86.062C30.8916 86.878 31.2456 88.024 31.2456 89.5V90.184ZM29.5536 88.78C29.5536 88 29.3436 87.388 28.9236 86.944C28.5036 86.5 27.9276 86.278 27.1956 86.278C26.5116 86.278 25.9656 86.506 25.5576 86.962C25.1496 87.418 24.9036 88.066 24.8196 88.906H29.5536V88.78ZM44.9005 85L41.4445 94H39.8605L36.4045 85H38.2405L40.6525 91.876L43.0465 85H44.9005ZM58.2808 90.184H51.8728C51.9688 91 52.2268 91.618 52.6468 92.038C53.0788 92.458 53.6668 92.668 54.4108 92.668C55.4668 92.668 56.3188 92.254 56.9668 91.426L57.9568 92.38C57.6088 92.944 57.1108 93.388 56.4628 93.712C55.8148 94.024 55.1008 94.18 54.3208 94.18C52.9768 94.18 51.9268 93.772 51.1708 92.956C50.4268 92.128 50.0548 90.982 50.0548 89.518C50.0548 88.054 50.4328 86.908 51.1888 86.08C51.9448 85.24 52.9828 84.82 54.3028 84.82C55.5508 84.82 56.5228 85.234 57.2188 86.062C57.9268 86.878 58.2808 88.024 58.2808 89.5V90.184ZM56.5888 88.78C56.5888 88 56.3788 87.388 55.9588 86.944C55.5388 86.5 54.9628 86.278 54.2308 86.278C53.5468 86.278 53.0008 86.506 52.5928 86.962C52.1848 87.418 51.9388 88.066 51.8548 88.906H56.5888V88.78ZM66.4816 94.18C65.7976 94.18 65.2816 93.988 64.9336 93.604C64.5856 93.208 64.4116 92.626 64.4116 91.858V80.644H66.1936V91.858C66.1936 92.23 66.2596 92.494 66.3916 92.65C66.5356 92.806 66.7636 92.884 67.0756 92.884C67.3276 92.884 67.6396 92.806 68.0116 92.65L68.2816 93.676C67.8136 94.012 67.2136 94.18 66.4816 94.18ZM77.9149 94.18C76.5349 94.18 75.4489 93.766 74.6569 92.938C73.8649 92.098 73.4689 90.952 73.4689 89.5C73.4689 88.048 73.8649 86.908 74.6569 86.08C75.4489 85.24 76.5349 84.82 77.9149 84.82C79.2949 84.82 80.3809 85.24 81.1729 86.08C81.9769 86.908 82.3789 88.048 82.3789 89.5C82.3789 90.952 81.9769 92.098 81.1729 92.938C80.3809 93.766 79.2949 94.18 77.9149 94.18ZM77.9149 92.83C78.7429 92.83 79.3969 92.536 79.8769 91.948C80.3569 91.348 80.5969 90.532 80.5969 89.5C80.5969 88.468 80.3569 87.658 79.8769 87.07C79.3969 86.47 78.7429 86.17 77.9149 86.17C77.0749 86.17 76.4209 86.47 75.9529 87.07C75.4849 87.658 75.2509 88.468 75.2509 89.5C75.2509 90.532 75.4849 91.348 75.9529 91.948C76.4209 92.536 77.0749 92.83 77.9149 92.83ZM88.4032 87.304C88.4032 86.464 88.3792 85.696 88.3312 85H89.9872C90.0232 85.408 90.0412 85.858 90.0412 86.35H90.0772C90.3412 85.882 90.7252 85.51 91.2292 85.234C91.7452 84.958 92.3092 84.82 92.9212 84.82C94.0732 84.82 94.9792 85.24 95.6392 86.08C96.2992 86.908 96.6292 88.048 96.6292 89.5C96.6292 90.94 96.2872 92.08 95.6032 92.92C94.9312 93.76 94.0132 94.18 92.8492 94.18C92.2492 94.18 91.7152 94.072 91.2472 93.856C90.7912 93.628 90.4552 93.31 90.2392 92.902H90.1852V98.356H88.4032V87.304ZM92.5252 92.83C93.2452 92.83 93.8092 92.53 94.2172 91.93C94.6372 91.33 94.8472 90.502 94.8472 89.446C94.8472 88.402 94.6492 87.604 94.2532 87.052C93.8572 86.5 93.2932 86.224 92.5612 86.224C91.8652 86.224 91.2952 86.446 90.8512 86.89C90.4072 87.322 90.1852 87.892 90.1852 88.6V90.31C90.1852 91.042 90.4012 91.648 90.8332 92.128C91.2772 92.596 91.8412 92.83 92.5252 92.83Z" fill="white"/>
<path d="M16.2523 23.2H32.8283C45.2443 23.2 51.4523 30.3893 51.4523 44.768C51.4523 50.3573 50.7483 54.8373 49.3403 58.208C47.9749 61.5787 45.7989 64.0533 42.8123 65.632C39.8683 67.2107 35.9643 68 31.1003 68H16.2523V23.2ZM32.0603 59.808C34.3216 59.808 36.1136 59.3173 37.4363 58.336C38.7589 57.3547 39.7189 55.776 40.3163 53.6C40.9136 51.424 41.2123 48.48 41.2123 44.768C41.2123 39.9467 40.5509 36.512 39.2283 34.464C37.9483 32.416 35.7509 31.392 32.6363 31.392H26.5563V59.808H32.0603ZM66.0208 50.08L51.3648 23.2H62.5008L71.1408 40.864L79.7808 23.2H90.9168L76.3248 50.08V68H66.0208V50.08Z" fill="white"/>
</svg>
